<?xml version="1.0" standalone="no"?>
<!DOCTYPE svg PUBLIC "-//W3C//DTD SVG 20010904//EN"
 "http://www.w3.org/TR/2001/REC-SVG-20010904/DTD/svg10.dtd">
<svg version="1.0" xmlns="http://www.w3.org/2000/svg"
 width="512.000000pt" height="512.000000pt" viewBox="0 0 512.000000 512.000000"
 preserveAspectRatio="xMidYMid meet">
<metadata>
Created by potrace 1.14, written by Peter Selinger 2001-2017
</metadata>
<g transform="translate(0.000000,512.000000) scale(0.100000,-0.100000)"
fill="#000000" stroke="none">
<path d="M2118 4395 c-2 -1 -106 -6 -233 -9 -126 -4 -264 -9 -305 -11 -251
-12 -330 -17 -375 -20 -113 -8 -201 -16 -225 -20 -14 -2 -56 -6 -95 -10 -296
-27 -505 -132 -655 -330 -113 -149 -167 -324 -195 -635 -3 -36 -8 -78 -10 -95
-13 -98 -20 -350 -20 -710 0 -436 7 -631 31 -830 2 -22 7 -62 10 -90 12 -106
54 -286 83 -357 117 -279 362 -452 696 -492 28 -3 66 -8 85 -11 331 -43 958
-69 1645 -70 384 0 823 9 990 20 33 2 119 6 190 10 72 3 157 8 190 11 100 7
188 15 220 19 17 2 57 7 90 10 33 3 67 8 75 10 8 2 36 6 62 10 65 8 171 41
240 75 85 42 146 87 212 154 125 128 198 282 231 486 3 19 7 46 10 60 6 29 10
67 20 165 4 39 8 86 11 105 26 224 26 1282 -1 1440 -2 14 -6 54 -10 89 -8 86
-32 242 -49 316 -58 259 -248 479 -494 571 -78 30 -119 40 -252 59 -25 4 -56
8 -70 10 -14 2 -60 7 -103 10 -43 4 -87 8 -97 10 -15 3 -129 11 -290 20 -25 2
-119 6 -210 10 -91 4 -199 9 -240 11 -95 5 -1158 13 -1162 9z m1142 -409 c52
-2 160 -7 240 -10 303 -14 590 -34 700 -51 14 -2 45 -6 70 -10 118 -17 202
-56 269 -123 69 -69 111 -171 127 -307 4 -27 8 -53 10 -56 2 -3 6 -39 9 -80 3
-41 7 -83 10 -94 27 -126 27 -1129 0 -1400 -2 -22 -7 -69 -10 -105 -13 -123
-46 -285 -70 -338 -31 -67 -120 -156 -187 -187 -29 -13 -93 -31 -143 -39 -88
-14 -126 -19 -270 -31 -38 -3 -88 -8 -110 -10 -36 -4 -142 -10 -374 -20 -550
-26 -1382 -26 -1931 0 -191 9 -301 15 -352 20 -29 3 -86 7 -126 10 -41 2 -88
7 -105 9 -18 3 -59 8 -92 11 -66 7 -134 19 -180 33 -125 37 -225 141 -264 272
-13 43 -38 194 -46 275 -3 33 -8 78 -10 100 -27 260 -27 1175 0 1405 3 19 7
60 10 90 32 299 82 415 212 498 71 44 124 61 261 78 81 11 78 10 317 29 135
11 342 21 665 31 118 3 216 7 218 9 5 4 1045 -4 1152 -9z"/>
<path d="M2050 2549 c0 -445 3 -808 8 -806 33 20 335 195 497 289 110 64 216
125 235 136 19 12 58 34 87 50 219 124 563 328 561 334 -3 8 -79 52 -843 492
-236 137 -441 256 -455 264 -14 9 -40 25 -57 34 l-33 18 0 -811z"/>
</g>
</svg>
